<?xml version="1.0" encoding="UTF-8"?>
<svg id="AI_graphic" data-name="AI graphic" xmlns="http://www.w3.org/2000/svg" viewBox="0 0 321.096 89.613">
  <defs>
    <style>
      .cls-1 {
        fill: #fff;
      }
    </style>
  </defs>
  <g>
    <path class="cls-1" d="M45.191,2.095h11.943c3.409,0,6.021.706,7.837,2.117,1.816,1.411,2.724,3.416,2.724,6.014,0,1.509-.377,2.864-1.132,4.065-.754,1.202-1.802,2.095-3.143,2.682,1.844.447,3.29,1.362,4.338,2.745,1.047,1.383,1.571,3.053,1.571,5.008,0,2.962-.971,5.238-2.913,6.831-1.942,1.592-4.771,2.389-8.486,2.389h-12.74V2.095ZM56.464,15.296c3.353,0,5.029-1.467,5.029-4.4,0-2.654-1.648-3.981-4.945-3.981h-5.28v8.382h5.196ZM57.68,29.126c1.648,0,2.919-.398,3.813-1.194s1.341-1.92,1.341-3.374c0-3.073-1.816-4.61-5.448-4.61h-6.118v9.178h6.412Z"/>
    <path class="cls-1" d="M85.548,34.616c-2.598,0-4.834-.454-6.705-1.362-1.873-.908-3.311-2.214-4.317-3.918-1.006-1.704-1.508-3.715-1.508-6.035,0-2.263.467-4.247,1.404-5.951.936-1.704,2.235-3.038,3.897-4.002,1.662-.964,3.568-1.446,5.72-1.446,2.067,0,3.862.434,5.385,1.299,1.522.866,2.696,2.095,3.52,3.688.824,1.593,1.236,3.465,1.236,5.616,0,.699-.042,1.453-.125,2.263h-15.045c.279,1.76,1.033,3.053,2.263,3.876,1.229.824,2.892,1.236,4.987,1.236,1.173,0,2.375-.14,3.604-.419,1.229-.279,2.361-.656,3.395-1.131l.587,4.568c-1.09.531-2.368.95-3.835,1.257-1.466.307-2.954.461-4.463.461ZM80.582,17.518c-.853.838-1.39,2.04-1.613,3.604h9.513c0-.307-.028-.587-.084-.838-.196-1.285-.685-2.276-1.467-2.975-.782-.698-1.802-1.048-3.059-1.048-1.341,0-2.438.419-3.29,1.257Z"/>
    <path class="cls-1" d="M105.19,44.213h-6.203l5.574-11.608-8.968-20.032h6.706l5.364,13.83,5.071-13.83h6.538l-14.081,31.641Z"/>
    <path class="cls-1" d="M131.83,34.616c-2.208,0-4.184-.496-5.93-1.488-1.746-.991-3.122-2.339-4.128-4.044-1.006-1.704-1.508-3.646-1.508-5.825s.509-4.121,1.529-5.825c1.02-1.704,2.403-3.052,4.149-4.044,1.746-.992,3.709-1.488,5.888-1.488,2.235,0,4.218.496,5.951,1.488,1.732.992,3.102,2.34,4.107,4.044,1.006,1.705,1.509,3.646,1.509,5.825,0,2.152-.51,4.086-1.53,5.804-1.02,1.718-2.396,3.074-4.128,4.065-1.732.992-3.702,1.488-5.909,1.488ZM135.77,19.005c-1.006-1.104-2.319-1.656-3.939-1.656-1.593,0-2.892.552-3.897,1.656-1.006,1.104-1.509,2.521-1.509,4.253s.503,3.15,1.509,4.254c1.006,1.104,2.305,1.655,3.897,1.655,1.62,0,2.934-.551,3.939-1.655,1.005-1.104,1.508-2.521,1.508-4.254s-.503-3.149-1.508-4.253Z"/>
    <path class="cls-1" d="M147.847,12.572h5.909l.084,3.06c.559-1.201,1.41-2.123,2.556-2.766,1.146-.643,2.473-.964,3.981-.964,2.431,0,4.302.775,5.616,2.326,1.313,1.551,1.97,3.793,1.97,6.727v12.991h-6.119v-11.818c0-3.212-1.23-4.819-3.688-4.819-1.341,0-2.375.447-3.101,1.341-.727.895-1.09,2.166-1.09,3.813v11.483h-6.118V12.572Z"/>
    <path class="cls-1" d="M195.114,33.945h-5.825l-.084-3.143c-1.509,2.542-3.884,3.813-7.125,3.813-1.9,0-3.583-.482-5.05-1.446s-2.619-2.298-3.458-4.002c-.838-1.704-1.257-3.66-1.257-5.867,0-2.151.446-4.086,1.341-5.804.894-1.718,2.102-3.08,3.625-4.086,1.522-1.006,3.22-1.509,5.092-1.509,2.905,0,5.113,1.16,6.622,3.479V0h6.119v33.945ZM187.822,27.513c1.005-1.104,1.508-2.521,1.508-4.254s-.503-3.149-1.508-4.253c-1.006-1.104-2.319-1.656-3.939-1.656-1.593,0-2.892.552-3.897,1.656-1.006,1.104-1.509,2.521-1.509,4.253s.503,3.15,1.509,4.254c1.006,1.104,2.305,1.655,3.897,1.655,1.62,0,2.934-.551,3.939-1.655Z"/>
    <path class="cls-1" d="M47.39,55.938h-2.168v-2.66h2.168v-3.062h3.263v3.062h2.638v2.66h-2.638v8.739h-3.263v-8.739Z"/>
    <path class="cls-1" d="M55.387,46.573h3.263v8.203c.313-.596.771-1.054,1.375-1.375s1.285-.48,2.045-.48c1.296,0,2.294.413,2.995,1.24.7.827,1.051,2.023,1.051,3.587v6.929h-3.264v-6.303c0-1.713-.656-2.57-1.967-2.57-.715,0-1.267.238-1.654.715-.388.477-.581,1.155-.581,2.034v6.124h-3.263v-18.104Z"/>
    <path class="cls-1" d="M75.257,65.035c-1.386,0-2.578-.242-3.576-.726-.999-.484-1.766-1.181-2.302-2.09-.536-.909-.805-1.981-.805-3.219,0-1.207.25-2.265.749-3.174.499-.909,1.192-1.62,2.079-2.134.886-.514,1.903-.771,3.051-.771,1.103,0,2.06.231,2.872.693.812.462,1.438,1.117,1.877,1.967.439.849.659,1.848.659,2.995,0,.373-.022.775-.067,1.207h-8.024c.149.939.551,1.628,1.207,2.068.655.439,1.542.659,2.66.659.626,0,1.266-.074,1.922-.224.655-.149,1.259-.35,1.81-.604l.313,2.437c-.581.283-1.263.506-2.045.67-.782.164-1.576.246-2.38.246ZM72.608,55.916c-.455.447-.742,1.088-.861,1.922h5.074c0-.164-.015-.313-.044-.447-.104-.686-.366-1.214-.783-1.587s-.961-.559-1.631-.559c-.715,0-1.3.224-1.754.67Z"/>
    <path class="cls-1" d="M89.625,47.495h6.747v12.698h14.835v-12.698h6.747v31.85h-6.747v-13.704h-14.835v13.704h-6.747v-31.85Z"/>
    <path class="cls-1" d="M131.231,89.613h-6.203l5.574-11.608-8.968-20.032h6.706l5.364,13.83,5.071-13.83h6.538l-14.081,31.641Z"/>
    <path class="cls-1" d="M148.572,57.972h5.699l.126,3.269c1.48-2.626,3.869-3.939,7.166-3.939,1.899,0,3.583.482,5.05,1.446s2.619,2.298,3.458,4.002c.838,1.705,1.257,3.661,1.257,5.867,0,2.152-.447,4.086-1.341,5.804-.895,1.718-2.095,3.081-3.604,4.086-1.509,1.006-3.213,1.509-5.113,1.509-2.878,0-5.071-1.117-6.58-3.353v12.95h-6.118v-31.641ZM163.679,72.913c1.02-1.104,1.53-2.521,1.53-4.254s-.51-3.149-1.53-4.253c-1.02-1.104-2.326-1.656-3.918-1.656s-2.898.552-3.918,1.656c-1.021,1.104-1.53,2.521-1.53,4.253s.509,3.15,1.53,4.254c1.02,1.104,2.326,1.655,3.918,1.655s2.898-.551,3.918-1.655Z"/>
    <path class="cls-1" d="M187.277,80.016c-2.598,0-4.834-.454-6.705-1.362-1.873-.908-3.311-2.214-4.317-3.918-1.006-1.704-1.508-3.715-1.508-6.035,0-2.263.467-4.247,1.404-5.951.936-1.704,2.235-3.038,3.897-4.002,1.662-.964,3.568-1.446,5.72-1.446,2.067,0,3.862.434,5.385,1.299,1.522.866,2.696,2.095,3.52,3.688.824,1.593,1.236,3.465,1.236,5.616,0,.699-.042,1.453-.125,2.263h-15.045c.279,1.76,1.033,3.053,2.263,3.876,1.229.824,2.892,1.236,4.987,1.236,1.173,0,2.375-.14,3.604-.419,1.229-.279,2.361-.656,3.395-1.131l.587,4.568c-1.09.531-2.368.95-3.835,1.257-1.466.307-2.954.461-4.463.461ZM182.311,62.917c-.853.838-1.39,2.04-1.613,3.604h9.513c0-.307-.028-.587-.084-.838-.196-1.285-.685-2.276-1.467-2.975-.782-.698-1.802-1.048-3.059-1.048-1.341,0-2.438.419-3.29,1.257Z"/>
  </g>
  <g>
    <path class="cls-1" d="M223.068,80.015c-2.38,0-4.445-.448-6.195-1.344-1.75-.896-3.094-2.177-4.032-3.843-.938-1.666-1.407-3.634-1.407-5.901,0-2.212.447-4.158,1.344-5.838.896-1.68,2.128-3.003,3.696-3.969,1.568-.967,3.36-1.449,5.376-1.449,1.904,0,3.562.435,4.977,1.302,1.414.868,2.52,2.072,3.318,3.612s1.197,3.346,1.197,5.418c0,.364-.007.7-.021,1.008-.014.309-.035.63-.063.966h-16.296c.252,2.213,1.092,3.906,2.52,5.082,1.428,1.176,3.346,1.765,5.754,1.765,2.464,0,4.872-.574,7.224-1.723l.42,3.024c-.952.588-2.121,1.05-3.507,1.386-1.386.336-2.821.504-4.305.504ZM217.146,62.438c-1.176,1.134-1.89,2.709-2.142,4.726h12.894c0-.308-.028-.603-.084-.882-.225-1.792-.875-3.164-1.953-4.116-1.078-.952-2.485-1.429-4.221-1.429-1.82,0-3.318.567-4.494,1.701Z"/>
    <path class="cls-1" d="M234.492,58.343h3.864l6.636,17.052,6.636-17.052h3.612l-8.61,21h-3.486l-8.652-21Z"/>
    <path class="cls-1" d="M269.184,80.015c-2.38,0-4.445-.448-6.195-1.344-1.75-.896-3.094-2.177-4.032-3.843-.938-1.666-1.407-3.634-1.407-5.901,0-2.212.447-4.158,1.344-5.838.896-1.68,2.128-3.003,3.696-3.969,1.568-.967,3.36-1.449,5.376-1.449,1.904,0,3.562.435,4.977,1.302,1.414.868,2.52,2.072,3.318,3.612s1.197,3.346,1.197,5.418c0,.364-.007.7-.021,1.008-.014.309-.035.63-.063.966h-16.296c.252,2.213,1.092,3.906,2.52,5.082,1.428,1.176,3.346,1.765,5.754,1.765,2.464,0,4.872-.574,7.224-1.723l.42,3.024c-.952.588-2.121,1.05-3.507,1.386-1.386.336-2.821.504-4.305.504ZM263.262,62.438c-1.176,1.134-1.89,2.709-2.142,4.726h12.894c0-.308-.028-.603-.084-.882-.225-1.792-.875-3.164-1.953-4.116-1.078-.952-2.485-1.429-4.221-1.429-1.82,0-3.318.567-4.494,1.701Z"/>
    <path class="cls-1" d="M283.968,58.343h3.36l.042,3.612c.588-1.345,1.505-2.395,2.751-3.15,1.245-.756,2.667-1.134,4.263-1.134,2.492,0,4.41.777,5.754,2.331s2.016,3.773,2.016,6.657v12.684h-3.569v-12.054c0-4.312-1.681-6.469-5.04-6.469-1.876,0-3.346.616-4.41,1.849s-1.596,2.926-1.596,5.082v11.592h-3.57v-21Z"/>
    <path class="cls-1" d="M311.646,61.409h-4.83v-3.066h4.83v-6.048h3.57v6.048h5.88v3.066h-5.88v17.934h-3.57v-17.934Z"/>
  </g>
  <path class="cls-1" d="M12.978,2.025h4.158l12.978,31.92h-4.074l-3.78-9.66H7.644l-3.78,9.66H0L12.978,2.025ZM21,21.136l-6.048-15.456-6.048,15.456h12.096Z"/>
</svg>