<?xml version="1.0" encoding="UTF-8"?>
<svg xmlns="http://www.w3.org/2000/svg" viewBox="0 0 977.893 976.858">
  <defs>
    <style>
      .cls-1 {
        fill: #f8be4f;
      }

      .cls-2 {
        stroke-linecap: square;
      }

      .cls-2, .cls-3, .cls-4, .cls-5, .cls-6, .cls-7, .cls-8, .cls-9, .cls-10, .cls-11, .cls-12, .cls-13, .cls-14, .cls-15, .cls-16, .cls-17, .cls-18 {
        fill: none;
      }

      .cls-2, .cls-3, .cls-4, .cls-5, .cls-6, .cls-7, .cls-8, .cls-9, .cls-10, .cls-11, .cls-12, .cls-13, .cls-14, .cls-15, .cls-17, .cls-18 {
        stroke-linejoin: round;
      }

      .cls-2, .cls-4, .cls-7, .cls-8, .cls-9, .cls-16 {
        stroke: #fff;
      }

      .cls-2, .cls-7, .cls-16 {
        stroke-width: .823px;
      }

      .cls-19 {
        fill: #2bb3bb;
      }

      .cls-3 {
        stroke: #7fc45f;
      }

      .cls-3, .cls-4, .cls-5, .cls-6, .cls-7, .cls-8, .cls-9, .cls-12, .cls-13, .cls-14, .cls-16, .cls-18 {
        stroke-linecap: round;
      }

      .cls-3, .cls-5, .cls-6, .cls-9, .cls-12, .cls-13, .cls-14, .cls-18 {
        stroke-width: 1.8px;
      }

      .cls-4 {
        stroke-width: 1.899px;
      }

      .cls-5 {
        stroke: #2bb3bb;
      }

      .cls-20 {
        fill: #c51765;
      }

      .cls-21 {
        isolation: isolate;
      }

      .cls-22 {
        fill: #2bafba;
      }

      .cls-23 {
        fill: #7fc45f;
      }

      .cls-6, .cls-10, .cls-11, .cls-24, .cls-25, .cls-15, .cls-17 {
        stroke: #2bafba;
      }

      .cls-8 {
        stroke-width: .852px;
      }

      .cls-10 {
        stroke-dasharray: 6.58 6.57 .01 0 0 0;
      }

      .cls-10, .cls-11, .cls-15, .cls-17 {
        stroke-width: .823px;
      }

      .cls-26 {
        fill: #60c3cb;
      }

      .cls-27 {
        fill: #fff;
      }

      .cls-11 {
        stroke-dasharray: 6.58 6.58 0 0 0 0;
      }

      .cls-12, .cls-28, .cls-29 {
        stroke: #c51765;
      }

      .cls-13 {
        stroke: #f8be4f;
      }

      .cls-14 {
        stroke: #ef8547;
      }

      .cls-24 {
        fill: #dff0f3;
      }

      .cls-24, .cls-25, .cls-16, .cls-28, .cls-29 {
        stroke-miterlimit: 10;
      }

      .cls-24, .cls-25, .cls-28, .cls-29 {
        stroke-width: 2.543px;
      }

      .cls-30 {
        opacity: .67;
      }

      .cls-25 {
        fill: #e0f1f3;
      }

      .cls-25, .cls-28 {
        mix-blend-mode: darken;
      }

      .cls-31 {
        fill: #c41565;
      }

      .cls-32 {
        fill: #ef8547;
      }

      .cls-15 {
        stroke-dasharray: 6.58 6.57 .01 0 0 0;
      }

      .cls-28, .cls-29 {
        fill: #f9eaf1;
      }

      .cls-17 {
        stroke-dasharray: 6.58 6.57 .01 0 0 0;
      }

      .cls-18 {
        stroke: #c41565;
      }
    </style>
  </defs>
  <g class="cls-21">
    <g id="AI_graphic" data-name="AI graphic">
      <g id="Circuits">
        <g class="cls-30">
          <line class="cls-9" x1="72.619" y1="482.215" x2="330.735" y2="482.215"/>
          <g>
            <line class="cls-9" x1="182.919" y1="456.107" x2="329.551" y2="456.107"/>
            <path class="cls-27" d="M183.088,459.49c-1.869,0-3.384-1.515-3.384-3.384s1.515-3.384,3.384-3.384,3.384,1.515,3.384,3.384-1.515,3.384-3.384,3.384Z"/>
          </g>
          <g>
            <line class="cls-9" x1="3.215" y1="534.51" x2="330.934" y2="534.51"/>
            <circle class="cls-27" cx="3.384" cy="534.51" r="3.384"/>
          </g>
          <g>
            <line class="cls-9" x1="104.055" y1="508.384" x2="330.84" y2="508.384"/>
            <circle class="cls-27" cx="104.224" cy="508.384" r="3.384"/>
          </g>
          <g>
            <line class="cls-9" x1="140.432" y1="561.839" x2="244.655" y2="561.833"/>
            <path class="cls-27" d="M140.602,565.223c-1.869,0-3.384-1.515-3.384-3.384s1.515-3.384,3.384-3.384,3.384,1.515,3.384,3.384c0,1.869-1.515,3.384-3.384,3.384Z"/>
            <path class="cls-27" d="M244.486,565.217c1.869,0,3.384-1.515,3.384-3.384,0-1.869-1.515-3.384-3.384-3.384-1.869,0-3.384,1.515-3.384,3.384s1.515,3.384,3.384,3.384Z"/>
          </g>
          <g>
            <line class="cls-9" x1="178.227" y1="598.524" x2="163.348" y2="585.652"/>
            <path class="cls-27" d="M180.313,595.854c1.413,1.222,1.568,3.36.345,4.773-1.222,1.413-3.36,1.568-4.773.345-1.413-1.222-1.568-3.36-.345-4.773,1.222-1.413,3.36-1.568,4.773-.345Z"/>
          </g>
          <g>
            <line class="cls-9" x1="55.274" y1="585.253" x2="162.712" y2="585.247"/>
            <path class="cls-27" d="M55.443,588.637c-1.869,0-3.384-1.515-3.384-3.384,0-1.869,1.515-3.384,3.384-3.384,1.869,0,3.384,1.515,3.384,3.384,0,1.869-1.515,3.384-3.384,3.384Z"/>
          </g>
          <g>
            <line class="cls-9" x1="204.645" y1="625.317" x2="254.354" y2="584.081"/>
            <path class="cls-27" d="M206.936,627.813c-1.438,1.193-3.572.994-4.765-.444-1.193-1.438-.994-3.572.444-4.765,1.438-1.193,3.572-.994,4.765.444,1.193,1.438.994,3.572-.444,4.765Z"/>
          </g>
          <g>
            <line class="cls-9" x1="72.619" y1="482.215" x2="62.403" y2="465.563"/>
            <path class="cls-27" d="M65.375,463.938c-.977-1.593-3.061-2.092-4.654-1.115-1.593.977-2.092,3.061-1.115,4.654s3.061,2.092,4.654,1.115c1.593-.977,2.092-3.061,1.115-4.654Z"/>
          </g>
          <g>
            <line class="cls-9" x1="212.091" y1="416.06" x2="200.818" y2="431.784"/>
            <path class="cls-27" d="M209.243,414.226c1.089-1.519,3.203-1.867,4.722-.778,1.519,1.089,1.867,3.203.778,4.722-1.089,1.519-3.203,1.867-4.722.778-1.519-1.089-1.867-3.203-.778-4.722Z"/>
          </g>
          <g>
            <line class="cls-9" x1="103.733" y1="431.971" x2="200.519" y2="431.976"/>
            <path class="cls-27" d="M103.902,435.355c-1.869,0-3.384-1.515-3.384-3.384s1.515-3.384,3.384-3.384c1.869,0,3.384,1.515,3.384,3.384,0,1.869-1.515,3.384-3.384,3.384Z"/>
          </g>
        </g>
        <g class="cls-30">
          <line class="cls-9" x1="137.095" y1="823.982" x2="397.095" y2="563.982"/>
          <g>
            <line class="cls-9" x1="197.198" y1="908.468" x2="274.73" y2="830.936"/>
            <path class="cls-27" d="M199.711,910.741c-1.321,1.321-3.464,1.321-4.785,0-1.321-1.321-1.321-3.464,0-4.785s3.464-1.321,4.785,0c1.321,1.321,1.321,3.464,0,4.785Z"/>
          </g>
          <g>
            <line class="cls-9" x1="124.883" y1="909.504" x2="392.61" y2="641.777"/>
            <path class="cls-27" d="M127.396,911.777c-1.321,1.321-3.464,1.321-4.786,0-1.321-1.321-1.321-3.464,0-4.785,1.321-1.321,3.464-1.321,4.785,0,1.321,1.321,1.321,3.464,0,4.785Z"/>
          </g>
          <g>
            <line class="cls-9" x1="183.511" y1="813.929" x2="421.238" y2="576.202"/>
            <path class="cls-27" d="M186.024,816.202c-1.321,1.321-3.464,1.321-4.785,0-1.321-1.321-1.321-3.464,0-4.785,1.321-1.321,3.464-1.321,4.785,0,1.321,1.321,1.321,3.464,0,4.785Z"/>
          </g>
          <g>
            <line class="cls-9" x1="267.034" y1="805.092" x2="442.468" y2="629.638"/>
            <path class="cls-27" d="M269.547,807.364c-1.321,1.321-3.464,1.321-4.786,0-1.321-1.321-1.321-3.464,0-4.785,1.321-1.321,3.464-1.321,4.785,0,1.321,1.321,1.322,3.464,0,4.785Z"/>
            <path class="cls-27" d="M444.741,632.15c1.321-1.321,1.321-3.464,0-4.785-1.321-1.321-3.464-1.321-4.785,0-1.321,1.321-1.321,3.464,0,4.785,1.321,1.321,3.464,1.321,4.785,0Z"/>
          </g>
          <g>
            <line class="cls-9" x1="416.623" y1="748.839" x2="397.92" y2="744.556"/>
            <path class="cls-27" d="M417.214,745.502c1.821.417,2.96,2.232,2.543,4.054-.417,1.821-2.232,2.96-4.054,2.543s-2.96-2.232-2.543-4.054c.417-1.821,2.232-2.96,4.054-2.543Z"/>
          </g>
          <g>
            <line class="cls-9" x1="363.028" y1="779.043" x2="397.574" y2="744.493"/>
            <path class="cls-27" d="M365.541,781.316c-1.321,1.321-3.464,1.321-4.785,0-1.321-1.321-1.321-3.464,0-4.785,1.321-1.321,3.464-1.321,4.785,0,1.321,1.321,1.321,3.464,0,4.785Z"/>
          </g>
          <g>
            <line class="cls-9" x1="136.873" y1="824.032" x2="118.486" y2="819.769"/>
            <path class="cls-27" d="M119.415,816.511c-1.82-.422-3.639.712-4.061,2.532-.422,1.82.712,3.639,2.532,4.06,1.82.422,3.638-.712,4.06-2.532.422-1.82-.712-3.639-2.532-4.06Z"/>
          </g>
          <g>
            <line class="cls-9" x1="188.393" y1="677.487" x2="192.53" y2="697.184"/>
            <path class="cls-27" d="M185.116,678.348c-.384-1.829.787-3.623,2.616-4.007,1.829-.384,3.623.787,4.007,2.616.384,1.829-.787,3.623-2.616,4.007-1.829.384-3.623-.787-4.007-2.616Z"/>
          </g>
          <g>
            <line class="cls-9" x1="157.903" y1="732.076" x2="192.453" y2="697.53"/>
            <path class="cls-27" d="M160.416,734.349c-1.321,1.321-3.464,1.321-4.785,0-1.321-1.321-1.321-3.464,0-4.785,1.321-1.321,3.464-1.321,4.785,0,1.321,1.321,1.321,3.464,0,4.785Z"/>
          </g>
          <g>
            <line class="cls-9" x1="196.191" y1="726.58" x2="363.918" y2="558.853"/>
            <path class="cls-27" d="M198.703,728.853c-1.321,1.321-3.464,1.321-4.786,0-1.321-1.321-1.321-3.464,0-4.785,1.321-1.321,3.464-1.321,4.785,0,1.321,1.321,1.321,3.464,0,4.785Z"/>
          </g>
          <g>
            <line class="cls-9" x1="292.615" y1="830.508" x2="275.209" y2="831.014"/>
            <path class="cls-27" d="M292.347,827.13c1.868-.054,3.426,1.416,3.481,3.284.054,1.868-1.416,3.426-3.284,3.481-1.868.054-3.426-1.416-3.481-3.284s1.416-3.426,3.284-3.481Z"/>
          </g>
          <g>
            <line class="cls-9" x1="332.462" y1="831.982" x2="338.339" y2="766.337"/>
            <path class="cls-27" d="M335.848,832.115c-.167,1.861-1.811,3.235-3.672,3.069-1.861-.167-3.235-1.811-3.069-3.672.167-1.861,1.811-3.235,3.672-3.069,1.861.167,3.235,1.811,3.069,3.672Z"/>
          </g>
          <g>
            <line class="cls-9" x1="404.979" y1="698.628" x2="338.339" y2="766.337"/>
            <path class="cls-27" d="M402.449,696.375c1.311-1.332,3.453-1.349,4.785-.038,1.332,1.311,1.349,3.454.038,4.785-1.311,1.332-3.453,1.349-4.785.038-1.332-1.311-1.349-3.454-.038-4.785Z"/>
          </g>
        </g>
        <g class="cls-30">
          <line class="cls-9" x1="438.46" y1="760.375" x2="438.46" y2="541.864"/>
          <g>
            <line class="cls-9" x1="566.742" y1="866.6" x2="566.742" y2="579.815"/>
            <path class="cls-27" d="M570.126,866.431c0,1.869-1.515,3.384-3.384,3.384s-3.384-1.515-3.384-3.384,1.515-3.384,3.384-3.384,3.384,1.515,3.384,3.384Z"/>
          </g>
          <g>
            <line class="cls-9" x1="514.085" y1="973.644" x2="514.085" y2="676.858"/>
            <path class="cls-27" d="M517.469,973.474c0,1.869-1.515,3.384-3.384,3.384s-3.384-1.515-3.384-3.384,1.515-3.384,3.384-3.384,3.384,1.515,3.384,3.384Z"/>
          </g>
          <g>
            <line class="cls-9" x1="487.96" y1="918.483" x2="487.96" y2="723.3"/>
            <path class="cls-27" d="M491.344,918.314c0,1.869-1.515,3.384-3.384,3.384s-3.384-1.515-3.384-3.384,1.515-3.384,3.384-3.384,3.384,1.515,3.384,3.384Z"/>
          </g>
          <g>
            <line class="cls-9" x1="460.446" y1="820.771" x2="460.44" y2="707.201"/>
            <path class="cls-27" d="M463.83,820.602c0,1.869-1.515,3.384-3.384,3.384s-3.384-1.515-3.384-3.384c0-1.869,1.515-3.384,3.384-3.384,1.869,0,3.384,1.515,3.384,3.384Z"/>
            <path class="cls-27" d="M463.823,707.37c0-1.869-1.515-3.384-3.384-3.384-1.869,0-3.384,1.515-3.384,3.384,0,1.869,1.515,3.384,3.384,3.384,1.869,0,3.384-1.515,3.384-3.384Z"/>
          </g>
          <g>
            <line class="cls-9" x1="556.443" y1="935.312" x2="540.526" y2="926.613"/>
            <path class="cls-27" d="M557.918,932.262c1.64.896,2.243,2.952,1.347,4.592-.896,1.64-2.952,2.243-4.592,1.347-1.64-.896-2.243-2.952-1.347-4.592.896-1.64,2.952-2.243,4.592-1.347Z"/>
          </g>
          <g>
            <line class="cls-4" x1="540.121" y1="669.368" x2="540.121" y2="925.978"/>
            <path class="cls-27" d="M536.551,669.547c0-1.971,1.598-3.569,3.569-3.569s3.569,1.598,3.569,3.569-1.598,3.569-3.569,3.569-3.569-1.598-3.569-3.569Z"/>
          </g>
          <g>
            <line class="cls-9" x1="607.2" y1="721.191" x2="590.418" y2="731.72"/>
            <path class="cls-27" d="M605.258,718.415c1.583-.993,3.672-.515,4.665,1.068s.515,3.672-1.068,4.665c-1.583.993-3.672.515-4.665-1.068-.993-1.583-.515-3.672,1.068-4.665Z"/>
          </g>
          <g>
            <line class="cls-9" x1="590.23" y1="785.805" x2="590.227" y2="732.02"/>
            <path class="cls-27" d="M593.614,785.636c0,1.869-1.515,3.384-3.384,3.384s-3.384-1.515-3.384-3.384c0-1.869,1.515-3.384,3.384-3.384s3.384,1.515,3.384,3.384Z"/>
          </g>
          <g>
            <line class="cls-9" x1="438.507" y1="760.756" x2="397.112" y2="809.506"/>
            <path class="cls-27" d="M394.642,807.187c-1.209,1.424-1.035,3.56.389,4.77,1.424,1.209,3.56,1.035,4.77-.389,1.209-1.424,1.035-3.56-.389-4.77-1.424-1.209-3.56-1.035-4.77.389Z"/>
          </g>
          <g>
            <line class="cls-9" x1="424.98" y1="837.142" x2="437.435" y2="849.597"/>
            <path class="cls-27" d="M422.707,839.654c-1.321-1.321-1.321-3.464,0-4.785,1.321-1.321,3.464-1.321,4.785,0,1.321,1.321,1.321,3.464,0,4.785-1.321,1.321-3.464,1.321-4.785,0Z"/>
          </g>
          <g>
            <line class="cls-9" x1="437.622" y1="906.793" x2="437.622" y2="850.008"/>
            <path class="cls-27" d="M441.006,906.624c0,1.869-1.515,3.384-3.384,3.384s-3.384-1.515-3.384-3.384,1.515-3.384,3.384-3.384,3.384,1.515,3.384,3.384Z"/>
          </g>
        </g>
        <g>
          <line class="cls-14" x1="785.918" y1="633.519" x2="647.101" y2="633.519"/>
          <g>
            <line class="cls-13" x1="927.283" y1="505.237" x2="640.497" y2="505.237"/>
            <circle class="cls-1" cx="927.114" cy="505.237" r="3.384"/>
          </g>
          <g>
            <line class="cls-14" x1="878.533" y1="557.894" x2="641.747" y2="557.894"/>
            <circle class="cls-32" cx="878.364" cy="557.894" r="3.384"/>
          </g>
          <g>
            <line class="cls-3" x1="913.026" y1="584.019" x2="706.24" y2="584.019"/>
            <path class="cls-23" d="M912.857,580.635c1.869,0,3.384,1.515,3.384,3.384s-1.515,3.384-3.384,3.384-3.384-1.515-3.384-3.384,1.515-3.384,3.384-3.384Z"/>
          </g>
          <g>
            <line class="cls-6" x1="863.314" y1="611.533" x2="759.091" y2="611.539"/>
            <path class="cls-22" d="M863.145,608.15c1.869,0,3.384,1.515,3.384,3.384,0,1.869-1.515,3.384-3.384,3.384s-3.384-1.515-3.384-3.384,1.515-3.384,3.384-3.384Z"/>
            <path class="cls-22" d="M759.26,608.155c-1.869,0-3.384,1.515-3.384,3.384s1.516,3.384,3.384,3.384,3.384-1.515,3.384-3.384c0-1.869-1.515-3.384-3.384-3.384Z"/>
          </g>
          <g>
            <line class="cls-6" x1="976.352" y1="515.536" x2="967.653" y2="531.453"/>
            <path class="cls-22" d="M973.301,514.061c.896-1.64,2.952-2.243,4.592-1.347,1.64.896,2.243,2.952,1.346,4.592-.896,1.64-2.952,2.243-4.592,1.346-1.64-.896-2.243-2.952-1.346-4.592Z"/>
          </g>
          <g>
            <line class="cls-6" x1="680.417" y1="531.858" x2="967.202" y2="531.858"/>
            <circle class="cls-22" cx="680.586" cy="531.858" r="3.384"/>
          </g>
          <g>
            <line class="cls-3" x1="701.734" y1="464.779" x2="712.263" y2="481.561"/>
            <path class="cls-23" d="M698.958,466.721c-.993-1.583-.515-3.672,1.068-4.665,1.583-.993,3.672-.515,4.665,1.068s.515,3.672-1.068,4.665c-1.583.993-3.672.515-4.665-1.068Z"/>
          </g>
          <g>
            <line class="cls-3" x1="839.348" y1="480.747" x2="712.563" y2="480.754"/>
            <circle class="cls-23" cx="839.179" cy="480.747" r="3.384" transform="translate(-94.15 734.197) rotate(-45)"/>
          </g>
          <g>
            <line class="cls-14" x1="786.299" y1="633.472" x2="849.829" y2="686.383"/>
            <path class="cls-32" d="M847.534,688.875c1.436,1.196,3.57,1.001,4.766-.435s1.001-3.57-.435-4.766c-1.436-1.196-3.57-1.001-4.766.435-1.196,1.436-1.001,3.57.435,4.766Z"/>
          </g>
          <g>
            <line class="cls-12" x1="784.57" y1="441.196" x2="795.844" y2="456.92"/>
            <path class="cls-20" d="M781.919,443.305c-1.089-1.519-.74-3.633.778-4.722,1.519-1.089,3.633-.74,4.722.778,1.089,1.519.74,3.633-.778,4.722-1.519,1.089-3.633.74-4.722-.778Z"/>
          </g>
          <g>
            <line class="cls-12" x1="872.928" y1="457.105" x2="716.143" y2="457.114"/>
            <path class="cls-20" d="M872.759,453.721c1.869,0,3.384,1.515,3.384,3.384,0,1.869-1.515,3.384-3.384,3.384-1.869,0-3.384-1.515-3.384-3.384,0-1.869,1.515-3.384,3.384-3.384Z"/>
          </g>
          <g>
            <line class="cls-14" x1="646.724" y1="633.205" x2="596.994" y2="591.788"/>
            <path class="cls-32" d="M599.289,589.296c-1.436-1.196-3.57-1.001-4.766.435-1.196,1.436-1.001,3.57.435,4.766,1.436,1.196,3.57,1.001,4.766-.435s1.001-3.57-.435-4.766Z"/>
          </g>
          <g>
            <line class="cls-13" x1="779.82" y1="178.494" x2="524.337" y2="433.948"/>
            <path class="cls-1" d="M777.307,176.221c1.321-1.321,3.464-1.321,4.785,0,1.321,1.321,1.321,3.464,0,4.785-1.321,1.321-3.464,1.321-4.785,0-1.321-1.321-1.321-3.464,0-4.785Z"/>
            <path class="cls-1" d="M522.064,431.436c-1.321,1.321-1.322,3.464,0,4.785,1.321,1.321,3.464,1.321,4.785,0,1.321-1.321,1.321-3.464,0-4.785-1.321-1.321-3.464-1.321-4.785,0Z"/>
          </g>
          <g>
            <line class="cls-3" x1="690.844" y1="226.519" x2="523.117" y2="394.246"/>
            <circle class="cls-23" cx="690.724" cy="226.639" r="3.384"/>
          </g>
        </g>
        <g>
          <g>
            <line class="cls-3" x1="816.432" y1="252.38" x2="648.705" y2="420.107"/>
            <circle class="cls-23" cx="816.313" cy="252.5" r="3.384"/>
          </g>
          <g>
            <line class="cls-6" x1="922.937" y1="110.593" x2="577.444" y2="456.048"/>
            <path class="cls-22" d="M920.425,108.32c1.322-1.321,3.464-1.321,4.785,0,1.321,1.321,1.321,3.464,0,4.785-1.321,1.321-3.464,1.321-4.785,0-1.321-1.321-1.321-3.464,0-4.785Z"/>
            <path class="cls-22" d="M575.171,453.535c-1.321,1.321-1.322,3.464,0,4.785,1.321,1.321,3.464,1.321,4.785,0,1.321-1.321,1.322-3.464,0-4.785-1.321-1.321-3.464-1.321-4.785,0Z"/>
          </g>
          <line class="cls-14" x1="745.567" y1="360.485" x2="591.056" y2="514.996"/>
          <g>
            <line class="cls-14" x1="745.803" y1="360.183" x2="810.255" y2="354.305"/>
            <path class="cls-32" d="M810.394,357.69c1.861-.17,3.232-1.816,3.062-3.677-.17-1.861-1.816-3.232-3.677-3.062-1.861.17-3.232,1.816-3.062,3.677.17,1.861,1.816,3.232,3.677,3.062Z"/>
          </g>
          <g>
            <line class="cls-13" x1="790.698" y1="331.475" x2="790.698" y2="313.862"/>
            <path class="cls-1" d="M794.081,331.306c0,1.869-1.515,3.384-3.384,3.384s-3.384-1.515-3.384-3.384,1.515-3.384,3.384-3.384,3.384,1.515,3.384,3.384Z"/>
          </g>
          <g>
            <line class="cls-13" x1="918.418" y1="186.85" x2="790.698" y2="313.862"/>
            <path class="cls-1" d="M915.912,184.57c1.325-1.318,3.468-1.312,4.785.013,1.318,1.325,1.312,3.468-.013,4.785-1.325,1.318-3.468,1.312-4.785-.013-1.318-1.325-1.312-3.468.013-4.785Z"/>
          </g>
          <g>
            <line class="cls-18" x1="846.741" y1="150.714" x2="571.256" y2="426.168"/>
            <path class="cls-31" d="M844.229,148.441c1.321-1.321,3.464-1.321,4.785,0,1.321,1.321,1.321,3.464,0,4.785-1.321,1.321-3.464,1.321-4.785,0-1.321-1.321-1.321-3.464,0-4.785Z"/>
            <path class="cls-31" d="M568.983,423.656c-1.321,1.321-1.321,3.464,0,4.785,1.321,1.321,3.464,1.321,4.785,0,1.321-1.321,1.321-3.464,0-4.785-1.321-1.321-3.464-1.321-4.785,0Z"/>
          </g>
        </g>
        <g>
          <line class="cls-14" x1="425.319" y1="219.925" x2="425.319" y2="438.437"/>
          <g>
            <line class="cls-13" x1="553.601" y1="190.388" x2="553.601" y2="425.486"/>
            <circle class="cls-1" cx="553.601" cy="190.558" r="3.384" transform="translate(75.316 528.24) rotate(-54.217)"/>
          </g>
          <g>
            <line class="cls-14" x1="500.944" y1="41.657" x2="500.944" y2="328.442"/>
            <path class="cls-32" d="M497.561,41.826c0-1.869,1.515-3.384,3.384-3.384s3.384,1.515,3.384,3.384-1.515,3.384-3.384,3.384-3.384-1.515-3.384-3.384Z"/>
          </g>
          <g>
            <line class="cls-3" x1="474.819" y1="3.215" x2="474.819" y2="330"/>
            <path class="cls-23" d="M471.435,3.384C471.435,1.515,472.95,0,474.819,0s3.384,1.515,3.384,3.384-1.515,3.384-3.384,3.384-3.384-1.515-3.384-3.384Z"/>
          </g>
          <g>
            <line class="cls-6" x1="450.308" y1="94.529" x2="450.296" y2="298.1"/>
            <path class="cls-22" d="M446.924,94.698c0-1.869,1.516-3.384,3.384-3.384,1.869,0,3.384,1.515,3.384,3.384,0,1.869-1.515,3.384-3.384,3.384s-3.384-1.515-3.384-3.384Z"/>
            <path class="cls-22" d="M446.912,297.93c0,1.869,1.515,3.384,3.384,3.384,1.869,0,3.384-1.515,3.384-3.384,0-1.869-1.515-3.384-3.384-3.384-1.869,0-3.384,1.515-3.384,3.384Z"/>
          </g>
          <g>
            <line class="cls-12" x1="543.302" y1="59.88" x2="527.385" y2="68.579"/>
            <path class="cls-20" d="M541.531,56.992c1.64-.896,3.696-.293,4.592,1.347.896,1.64.293,3.696-1.347,4.592-1.64.896-3.696.293-4.592-1.347-.896-1.64-.293-3.696,1.347-4.592Z"/>
          </g>
          <g>
            <line class="cls-12" x1="526.989" y1="306" x2="526.976" y2="69.215"/>
            <path class="cls-20" d="M530.373,305.831c0,1.869-1.515,3.384-3.384,3.384-1.869,0-3.384-1.515-3.384-3.384,0-1.869,1.515-3.384,3.384-3.384,1.869,0,3.384,1.515,3.384,3.384Z"/>
          </g>
          <g>
            <line class="cls-14" x1="425.366" y1="219.544" x2="383.948" y2="169.814"/>
            <path class="cls-32" d="M386.656,167.778c-1.196-1.436-3.33-1.63-4.766-.435-1.436,1.196-1.63,3.33-.435,4.766,1.196,1.436,3.33,1.63,4.766.435,1.436-1.196,1.63-3.33.435-4.766Z"/>
          </g>
          <g>
            <line class="cls-13" x1="411.839" y1="127.965" x2="424.294" y2="115.51"/>
            <path class="cls-1" d="M414.351,130.238c-1.321,1.321-3.464,1.321-4.785,0-1.321-1.321-1.321-3.464,0-4.785,1.321-1.321,3.464-1.321,4.785,0,1.321,1.321,1.321,3.464,0,4.785Z"/>
          </g>
          <g>
            <line class="cls-13" x1="424.482" y1="66.353" x2="424.484" y2="115.211"/>
            <path class="cls-1" d="M421.098,66.522c0-1.869,1.515-3.384,3.384-3.384,1.869,0,3.384,1.515,3.384,3.384,0,1.869-1.515,3.384-3.384,3.384-1.869,0-3.384-1.515-3.384-3.384Z"/>
          </g>
          <g>
            <line class="cls-5" x1="592.215" y1="215.859" x2="579.761" y2="203.405"/>
            <circle class="cls-19" cx="592.096" cy="215.74" r="3.384" transform="translate(82.371 586.283) rotate(-56.035)"/>
          </g>
          <g>
            <line class="cls-5" x1="579.573" y1="154.248" x2="579.57" y2="203.106"/>
            <path class="cls-19" d="M576.189,154.417c0-1.869,1.516-3.384,3.384-3.384s3.384,1.515,3.384,3.384c0,1.869-1.516,3.384-3.384,3.384s-3.384-1.515-3.384-3.384Z"/>
          </g>
        </g>
      </g>
      <path class="cls-20" d="M250.086,541.115l-35.454,41.409c8.688,7.439,17.873,14.276,27.492,20.466,9.618,6.189,19.647,11.715,30.017,16.54l23.007-49.449c-16.101-7.473-31.289-17.163-45.062-28.966Z"/>
      <g>
        <path class="cls-20" d="M565.113,313.161l51.113-20.832c-12.325-30.239-30.35-57.829-53.091-81.263-22.741-23.434-49.777-42.279-79.633-55.506l-22.352,50.453c47.355,20.98,84.581,59.702,103.963,107.148Z"/>
        <path class="cls-20" d="M181.946,374.246c7.779-100.351,88.521-177.585,186.171-183.716l-3.528-55.099c-126.005,8.069-227.954,108.659-237.712,234.545-1.596,20.594-.682,41.307,2.722,61.68l54.436-9.097c-2.599-15.625-3.368-31.813-2.089-48.314Z"/>
        <path class="cls-20" d="M185.68,431.253l-53.974,11.5c2.413,11.324,5.595,22.471,9.524,33.363,3.929,10.892,8.596,21.503,13.969,31.759l48.908-25.619c-8.353-15.91-14.608-33.042-18.427-51.003Z"/>
      </g>
      <path class="cls-22" d="M589.574,792.091l-3.513,55.107c32.602,2.079,65.302-2.13,96.315-12.397,31.013-10.267,59.765-26.402,84.686-47.524l-35.694-42.114c-39.529,33.502-90.622,50.151-141.794,46.929Z"/>
      <path class="cls-22" d="M544.604,783.308l-16.106,52.816c5.252,1.602,10.554,3.033,15.898,4.292,5.344,1.259,10.728,2.345,16.142,3.256l9.162-54.441c-8.423-1.416-16.806-3.387-25.097-5.923Z"/>
      <path class="cls-22" d="M532.87,780.499l-18.838,51.915c1.334.484,2.673.957,4.015,1.419s2.688.913,4.038,1.352l17.091-52.508c-2.109-.689-4.211-1.414-6.306-2.177Z"/>
      <path class="cls-22" d="M701.54,420.418c86.979,50.736,121.346,157.103,84.313,247.711l51.156,20.833c47.643-116.988,1.485-252.63-107.626-316.276-17.85-10.412-36.901-18.615-56.732-24.427l-15.53,52.986c15.204,4.469,30.116,10.83,44.419,19.173Z"/>
      <path class="cls-22" d="M648.575,398.939l13.165-53.617c-11.249-2.762-22.674-4.754-34.195-5.962-11.52-1.208-23.11-1.629-34.687-1.261l1.758,55.207c17.967-.589,36.121,1.244,53.96,5.632Z"/>
      <path class="cls-25" d="M642.538,413.005c-26.928-6.214-53.828-6.144-79.21-.828-.772,5.876-1.811,11.767-3.171,17.661-13.85,60.014-55.534,106.333-108.256,128.57,37.645,43.091,54.817,102.993,40.967,163.007-1.36,5.893-3.008,11.644-4.889,17.264,20.485,15.901,44.634,27.752,71.562,33.966,99.312,22.919,198.399-39.01,221.318-138.322,22.919-99.312-39.011-198.399-138.322-221.318Z"/>
      <path class="cls-28" d="M426.11,534.063c21.217-63.407,74.55-108.761,137.219-121.886,12.244-93.141-48.075-182.098-141.493-203.657-99.312-22.919-198.399,39.01-221.318,138.322-13.85,60.014,3.322,119.916,40.967,163.007,34.521-14.561,73.765-18.821,113.062-9.752,26.929,6.215,51.077,18.065,71.562,33.966Z"/>
      <path class="cls-20" d="M214.671,501.641l-46.191,28.685c2.852,4.593,5.852,9.093,8.995,13.492,3.143,4.399,6.427,8.696,9.848,12.883l42.1-34.393c-5.322-6.512-10.254-13.41-14.753-20.667Z"/>
      <path class="cls-20" d="M208.883,491.954l-47.63,26.245c.675,1.224,1.359,2.443,2.054,3.656.695,1.213,1.4,2.42,2.115,3.621l46.72-27.818c-1.116-1.878-2.203-3.779-3.26-5.704Z"/>
      <path class="cls-20" d="M350.295,408.255c-1.119-.258-2.235.44-2.494,1.558l-1.999,8.662c-.258,1.119.44,2.235,1.558,2.494s2.235-.44,2.494-1.558l1.999-8.662c.258-1.119-.44-2.235-1.558-2.494Z"/>
      <path class="cls-20" d="M393.603,418.249c-1.119-.258-2.235.44-2.494,1.558l-1.999,8.662c-.258,1.119.44,2.235,1.558,2.494s2.235-.44,2.494-1.558l1.999-8.662c.258-1.119-.44-2.235-1.558-2.494Z"/>
      <path class="cls-20" d="M343.822,361.372c-4.162-3.438-12.976-5.501-13.349-5.587-1.119-.258-2.235.439-2.493,1.558-.258,1.119.439,2.235,1.558,2.494,2.279.527,8.812,2.407,11.637,4.741.257.213.551.353.855.423.743.171,1.553-.074,2.072-.702.732-.885.607-2.196-.279-2.927Z"/>
      <path class="cls-20" d="M430.797,425.091c-1.119-.258-2.235.44-2.494,1.558l-2.381,10.316c-.258,1.119.44,2.235,1.558,2.494s2.235-.44,2.494-1.558l2.381-10.316c.258-1.119-.44-2.235-1.558-2.494Z"/>
      <circle class="cls-27" cx="381.655" cy="388.991" r="185.166"/>
      <g>
        <path class="cls-29" d="M564.045,412.034c11.92-93.098-48.469-181.881-141.862-203.433-99.504-22.963-198.783,39.086-221.746,138.59-22.963,99.504,39.086,198.783,138.59,221.746,26.814,6.188,53.598,6.153,78.89.925.781-6.165,1.877-12.349,3.304-18.533,16.762-72.635,74.284-125.222,142.823-139.294Z"/>
        <path class="cls-24" d="M642.539,413.005c-26.677-6.156-53.322-6.14-78.494-.972-.78,6.092-1.861,12.202-3.272,18.312-16.775,72.69-74.291,125.342-142.856,139.515-11.754,92.824,48.5,181.293,141.626,202.784,99.312,22.919,198.399-39.01,221.317-138.322,22.919-99.312-39.01-198.399-138.322-221.317Z"/>
      </g>
      <path class="cls-20" d="M468.816,412.587l-11.331-5.665c-.066-.033-.107-.099-.107-.172v-5.695c4.652-3.203,7.944-8.266,8.768-14.208,2.092-3.615,3.195-7.699,3.195-11.851,0-7.743-3.728-14.631-9.483-18.965.337-1.123.511-2.282.511-3.464,0-7.314-6.622-13.265-14.76-13.265-8.138,0-14.76,5.951-14.76,13.265,0,1.184.172,2.343.51,3.465-3.431,2.585-6.137,6.079-7.765,10.12-.694-6.816-1.416-14.873-2.109-24.258-.914-12.384-5.368-22.841-12.879-30.242-7.454-7.345-17.409-11.227-28.789-11.227-11.38,0-21.335,3.882-28.788,11.227-7.511,7.401-11.965,17.859-12.879,30.242-.243,3.288-.489,6.404-.736,9.37h-26.379c-9.788,0-17.751,7.963-17.751,17.751v.167c0,2.279.539,4.562,1.558,6.601l1.432,2.865v4.568c0,7.24,3.568,13.736,8.971,17.645v4.041c0,.518-.348.979-.846,1.122l-11.551,3.301c-5.026,1.436-8.536,6.089-8.536,11.316v23.138c0,1.545,1.253,2.798,2.798,2.798s2.798-1.253,2.798-2.798v-23.138c0-2.742,1.841-5.183,4.478-5.936l11.552-3.301c.417-.119.813-.281,1.189-.472l7.091,7.091v25.756c0,1.545,1.253,2.798,2.798,2.798s2.798-1.253,2.798-2.798v-25.756s7.14-7.14,7.14-7.14c.954.468,1.905.741,2.602.94l2.836.81c-3.844,2.733-6.213,7.191-6.213,12.025v19.121c0,1.545,1.253,2.798,2.798,2.798s2.798-1.253,2.798-2.798v-19.121c0-3.627,2.144-6.917,5.462-8.383l15.997-7.065c5.013,10.039,15.257,16.434,26.582,16.434,11.368,0,21.577-6.381,26.587-16.432l15.992,7.063c3.318,1.465,5.462,4.756,5.462,8.383v19.121c0,1.545,1.253,2.798,2.798,2.798s2.798-1.253,2.798-2.798v-19.121c0-3.579-1.301-6.951-3.534-9.572l4.33-2.165,3.251,3.089c2.273,2.161,5.19,3.24,8.108,3.24,2.917,0,5.835-1.08,8.107-3.24l3.25-3.089,9.346,4.673c2.105,1.052,3.413,3.168,3.413,5.522v20.663c0,1.545,1.253,2.798,2.798,2.798s2.798-1.253,2.798-2.798v-20.663c0-4.487-2.494-8.52-6.507-10.527ZM445.61,344.897c5.053,0,9.164,3.44,9.164,7.669,0,.177-.014.353-.028.528-2.814-1.178-5.9-1.831-9.136-1.831s-6.321.653-9.134,1.831c-.015-.175-.03-.351-.03-.528,0-4.229,4.111-7.669,9.164-7.669ZM317.016,412.906l-6.376-6.376c.132-.525.202-1.072.202-1.63v-1.18c1.76.578,3.617.921,5.537.978.215.007.429.01.644.01,2.122,0,4.194-.32,6.165-.932v1.123c0,.607.062,1.158.173,1.661l-6.346,6.346ZM316.548,399.104c-8.093-.242-14.678-7.371-14.678-15.89v-5.229c0-.434-.101-.863-.295-1.251l-1.728-3.455c-.633-1.266-.967-2.683-.967-4.099v-.167c0-6.702,5.453-12.155,12.155-12.155h24.117v11.615c0,1.877-.444,3.757-1.283,5.436l-1.412,2.824c-.194.389-.295.817-.295,1.251v5.981c0,4.131-1.633,7.992-4.599,10.87-2.964,2.876-6.878,4.394-11.014,4.268ZM339.933,408.965l-8.839-2.525c-2.309-.66-2.309-.917-2.309-1.54v-3.855c.94-.651,1.837-1.38,2.675-2.193.564-.547,1.089-1.123,1.582-1.72.45.912,1.139,1.708,2.029,2.285,2.243,1.452,6.475,3.865,12.7,6.087l-7.837,3.462ZM379.818,420.046c-9.104,0-17.348-5.089-21.46-13.1l4.073-1.799c3.179-1.404,5.232-4.556,5.232-8.031v-6.714c3.759,1.511,7.862,2.344,12.155,2.344,4.293,0,8.395-.833,12.155-2.344v6.714c0,3.475,2.054,6.627,5.232,8.031l4.072,1.799c-4.109,8.021-12.322,13.101-21.459,13.101ZM404.08,402.066l-4.614-2.038c-1.152-.509-1.897-1.652-1.897-2.912v-9.62c8.992-5.834,14.953-15.961,14.953-27.454v-5.246c0-3.41-1.45-6.626-3.978-8.825-5.622-4.889-18.347-13.422-40.41-15.628-1.534-.154-2.909.968-3.062,2.506-.154,1.538.968,2.909,2.506,3.062,20.52,2.052,32.174,9.829,37.294,14.282,1.305,1.135,2.054,2.813,2.054,4.602v5.246c0,14.947-12.16,27.107-27.107,27.107-14.947,0-27.107-12.16-27.107-27.107v-2.341c0-1.075.596-2.06,1.594-2.635,3.498-2.014,8.112-5.746,10.224-12.083.489-1.466-.304-3.051-1.77-3.539-1.465-.489-3.051.304-3.539,1.77-1.556,4.669-5.051,7.473-7.708,9.003-2.713,1.562-4.398,4.43-4.398,7.485v2.341c0,11.494,5.961,21.62,14.953,27.454v9.62c0,1.26-.745,2.403-1.897,2.912l-4.614,2.038c-9.012-2.411-14.786-5.626-17.443-7.346-.053-.034-.083-.073-.068-.162.976-5.769,3.484-22.41,5.687-52.253.813-11.011,4.694-20.233,11.226-26.669,6.385-6.291,14.982-9.617,24.861-9.617,9.879,0,18.476,3.326,24.861,9.617,6.531,6.435,10.413,15.657,11.226,26.668,2.203,29.842,4.711,46.483,5.687,52.253.015.089-.015.128-.068.162-2.661,1.722-8.435,4.935-17.443,7.346ZM433.84,406.749c0,.073-.041.14-.106.172l-8.766,4.383c-.104-.049-.204-.104-.309-.15l-12.793-5.65c6.221-2.221,10.453-4.633,12.699-6.087,1.929-1.249,2.929-3.523,2.545-5.793-.021-.124-.044-.26-.066-.395,1.574,3.164,3.927,5.849,6.797,7.825v5.694ZM449.862,411.952c-2.384,2.267-6.12,2.266-8.505,0l-2.601-2.471c.439-.822.68-1.755.68-2.731v-2.977c1.954.606,4.027.936,6.173.936,2.146,0,4.219-.33,6.173-.936v2.977c0,.977.241,1.91.68,2.732l-2.6,2.471ZM445.61,399.112c-7.747,0-14.218-5.801-15.051-13.494-.045-.412-.18-.809-.397-1.163-1.759-2.864-2.688-6.135-2.688-9.46,0-10,8.135-18.135,18.136-18.135,10,0,18.136,8.136,18.136,18.136,0,1.928-.314,3.837-.92,5.66-7.945-8.071-21.921-11.235-22.595-11.383-.827-.182-1.694.021-2.355.551-.661.531-1.045,1.333-1.045,2.181,0,.018-.128,1.959-2.171,4.003-1.093,1.093-1.093,2.864,0,3.957,1.093,1.093,2.864,1.093,3.957,0,1.574-1.574,2.498-3.171,3.04-4.519,4.708,1.399,14.48,4.931,18.865,11.131-1.245,7.211-7.491,12.537-14.913,12.537Z"/>
      <g id="GenAI">
        <line class="cls-11" x1="601.589" y1="526.447" x2="604.022" y2="408.447"/>
        <g>
          <line class="cls-17" x1="642.842" y1="527.805" x2="683.254" y2="457.906"/>
          <path class="cls-22" d="M685.204,459.168c.641-1.109.262-2.528-.847-3.169-1.109-.641-2.528-.262-3.169.847-.641,1.109-.262,2.528.847,3.169s2.528.262,3.169-.847Z"/>
        </g>
        <ellipse class="cls-22" cx="601.819" cy="590.468" rx="76.918" ry="76.071"/>
        <ellipse class="cls-26" cx="601.819" cy="588.739" rx="47.299" ry="46.779"/>
        <line class="cls-7" x1="649.235" y1="611.384" x2="626.347" y2="588.496"/>
        <line class="cls-7" x1="608.534" y1="588.495" x2="626.184" y2="588.496"/>
        <line class="cls-7" x1="659.141" y1="616.091" x2="633.594" y2="591.366"/>
        <line class="cls-7" x1="615.781" y1="591.366" x2="633.431" y2="591.366"/>
        <line class="cls-7" x1="668.638" y1="602.919" x2="668.638" y2="585.268"/>
        <line class="cls-7" x1="609.458" y1="585.777" x2="640.063" y2="585.778"/>
        <line class="cls-7" x1="640.16" y1="585.796" x2="658.127" y2="567.515"/>
        <line class="cls-7" x1="616.481" y1="583.939" x2="633.102" y2="583.939"/>
        <line class="cls-7" x1="633.199" y1="583.957" x2="658.31" y2="558.846"/>
        <line class="cls-7" x1="629.998" y1="550.168" x2="629.997" y2="583.525"/>
        <line class="cls-7" x1="633.135" y1="651.134" x2="611.722" y2="632.858"/>
        <line class="cls-7" x1="611.706" y1="626.143" x2="611.706" y2="632.781"/>
        <line class="cls-7" x1="631.469" y1="613.493" x2="608.58" y2="590.604"/>
        <line class="cls-7" x1="631.471" y1="613.553" x2="631.471" y2="631.203"/>
        <line class="cls-7" x1="648.99" y1="644.418" x2="631.487" y2="631.249"/>
        <line class="cls-8" x1="659.116" y1="616.092" x2="674.116" y2="616.089"/>
        <line class="cls-7" x1="654.563" y1="645.127" x2="635.389" y2="630.969"/>
        <line class="cls-7" x1="635.313" y1="607.081" x2="635.311" y2="630.821"/>
        <line class="cls-7" x1="650.556" y1="616.294" x2="625.805" y2="591.542"/>
        <line class="cls-7" x1="650.617" y1="616.385" x2="650.616" y2="629.036"/>
        <line class="cls-7" x1="601.664" y1="580.38" x2="601.686" y2="515.974"/>
        <line class="cls-2" x1="601.819" y1="666.538" x2="601.664" y2="593.6"/>
        <line class="cls-7" x1="677.577" y1="576.142" x2="668.638" y2="585.106"/>
        <line class="cls-7" x1="662.303" y1="637.627" x2="650.64" y2="629.057"/>
        <line class="cls-7" x1="607.135" y1="551.053" x2="617.371" y2="561.289"/>
        <line class="cls-7" x1="617.371" y1="569.255" x2="617.371" y2="561.362"/>
        <line class="cls-7" x1="629.932" y1="526.007" x2="618.759" y2="526.007"/>
        <line class="cls-7" x1="618.694" y1="525.994" x2="601.813" y2="542.874"/>
        <line class="cls-7" x1="618.101" y1="530.296" x2="605.625" y2="542.771"/>
        <path class="cls-7" d="M608.025,590.687v32.175s18.752,16.264,18.752,16.264M597.168,590.424v47.263s-3.27,2.815-3.27,2.815M605.086,594.645v46.123s5.399,4.584,5.399,4.584"/>
        <line class="cls-7" x1="604.673" y1="585.212" x2="622.64" y2="566.931"/>
        <line class="cls-7" x1="622.726" y1="543.055" x2="622.727" y2="566.794"/>
        <line class="cls-7" x1="606.712" y1="587.256" x2="625.859" y2="568.11"/>
        <line class="cls-7" x1="625.859" y1="550.297" x2="625.859" y2="567.947"/>
        <line class="cls-7" x1="629.95" y1="550.23" x2="642.841" y2="527.805"/>
        <line class="cls-7" x1="648.634" y1="543.27" x2="636.866" y2="563.814"/>
        <line class="cls-7" x1="636.781" y1="580.333" x2="636.781" y2="563.946"/>
        <line class="cls-7" x1="587.97" y1="652.346" x2="597.624" y2="642.692"/>
        <line class="cls-7" x1="601.601" y1="642.692" x2="597.696" y2="642.692"/>
        <line class="cls-7" x1="551.159" y1="602.54" x2="581.765" y2="602.54"/>
        <line class="cls-7" x1="581.862" y1="602.559" x2="599.829" y2="584.278"/>
        <line class="cls-7" x1="546.43" y1="587.416" x2="594.853" y2="587.416"/>
        <line class="cls-7" x1="546.4" y1="587.371" x2="543.097" y2="584.068"/>
        <line class="cls-7" x1="544.471" y1="579.895" x2="580.093" y2="579.895"/>
        <line class="cls-7" x1="584.481" y1="584.226" x2="580.154" y2="579.899"/>
        <line class="cls-7" x1="584.565" y1="584.3" x2="596.04" y2="584.3"/>
        <line class="cls-7" x1="544.334" y1="579.902" x2="526.131" y2="576.874"/>
        <line class="cls-7" x1="587.532" y1="542.698" x2="599.3" y2="563.242"/>
        <line class="cls-7" x1="599.384" y1="579.762" x2="599.384" y2="563.374"/>
        <line class="cls-7" x1="592.489" y1="542.058" x2="601.538" y2="556.707"/>
        <line class="cls-7" x1="592.476" y1="542.024" x2="592.477" y2="525.636"/>
        <line class="cls-7" x1="598.472" y1="581.032" x2="580.506" y2="562.751"/>
        <line class="cls-16" x1="580.419" y1="532.211" x2="580.419" y2="562.614"/>
        <line class="cls-7" x1="597.198" y1="581.537" x2="574.219" y2="558.557"/>
        <line class="cls-7" x1="574.219" y1="525.589" x2="574.219" y2="558.394"/>
        <line class="cls-7" x1="574.21" y1="525.557" x2="569.998" y2="520.13"/>
        <line class="cls-7" x1="549.557" y1="550.266" x2="569.391" y2="570.1"/>
        <line class="cls-7" x1="569.475" y1="579.579" x2="569.475" y2="570.176"/>
        <line class="cls-7" x1="560.497" y1="556.542" x2="574.04" y2="569.947"/>
        <line class="cls-7" x1="574.075" y1="579.659" x2="574.075" y2="569.999"/>
        <line class="cls-7" x1="552.607" y1="579.896" x2="545.335" y2="572.496"/>
        <line class="cls-16" x1="545.3" y1="560.135" x2="545.3" y2="572.441"/>
        <line class="cls-7" x1="548.601" y1="579.863" x2="540.066" y2="571.179"/>
        <line class="cls-16" x1="540.025" y1="556.67" x2="540.025" y2="571.114"/>
        <line class="cls-7" x1="595.099" y1="584.097" x2="557.243" y2="546.241"/>
        <line class="cls-7" x1="552.505" y1="532.091" x2="557.175" y2="546.178"/>
        <line class="cls-7" x1="591.246" y1="573.471" x2="591.246" y2="561.709"/>
        <line class="cls-7" x1="574.089" y1="630.64" x2="564.325" y2="620.38"/>
        <line class="cls-7" x1="564.325" y1="602.567" x2="564.325" y2="620.217"/>
        <line class="cls-7" x1="553.997" y1="602.852" x2="553.997" y2="636.903"/>
        <line class="cls-7" x1="576.869" y1="610.67" x2="596.286" y2="591.253"/>
        <line class="cls-7" x1="583.721" y1="639.341" x2="579.738" y2="635.125"/>
        <line class="cls-7" x1="525.969" y1="604.375" x2="541.164" y2="589.207"/>
        <line class="cls-7" x1="594.477" y1="589.2" x2="541.178" y2="589.2"/>
        <line class="cls-7" x1="538.158" y1="597.734" x2="546.628" y2="589.264"/>
        <line class="cls-7" x1="561.012" y1="599.163" x2="579.936" y2="599.163"/>
        <line class="cls-7" x1="560.981" y1="599.136" x2="555.459" y2="593.614"/>
        <line class="cls-7" x1="579.898" y1="599.173" x2="589.722" y2="589.349"/>
        <line class="cls-7" x1="539.391" y1="620.54" x2="553.954" y2="606.451"/>
        <line class="cls-7" x1="539.362" y1="620.625" x2="539.362" y2="624.39"/>
        <line class="cls-7" x1="535.226" y1="628.586" x2="539.355" y2="624.457"/>
        <line class="cls-7" x1="576.878" y1="610.718" x2="576.878" y2="644.768"/>
        <line class="cls-7" x1="579.711" y1="607.988" x2="579.711" y2="635.112"/>
        <line class="cls-7" x1="583.724" y1="639.405" x2="583.782" y2="664.699"/>
        <line class="cls-7" x1="645.889" y1="596.092" x2="645.889" y2="590.001"/>
        <line class="cls-7" x1="663.972" y1="579.286" x2="653.532" y2="589.727"/>
        <line class="cls-7" x1="653.539" y1="604.602" x2="653.539" y2="589.756"/>
        <line class="cls-7" x1="659.882" y1="593.894" x2="653.519" y2="600.258"/>
        <circle class="cls-27" cx="606.689" cy="550.708" r="1.641"/>
        <circle class="cls-27" cx="630.93" cy="525.993" r="1.641"/>
        <circle class="cls-27" cx="622.69" cy="542.615" r="1.641"/>
        <circle class="cls-27" cx="611.269" cy="645.981" r="1.641"/>
        <circle class="cls-27" cx="615.573" cy="591.543" r="1.641"/>
        <circle class="cls-27" cx="668.673" cy="603.435" r="1.641"/>
        <circle class="cls-27" cx="658.942" cy="558.205" r="1.641"/>
        <circle class="cls-27" cx="658.565" cy="567.081" r="1.641"/>
        <circle class="cls-27" cx="633.978" cy="651.764" r="1.641"/>
        <circle class="cls-27" cx="635.294" cy="606.82" r="1.641"/>
        <circle class="cls-27" cx="648.85" cy="542.746" r="1.641"/>
        <circle class="cls-27" cx="587.576" cy="652.916" r="1.641"/>
        <circle class="cls-27" cx="550.47" cy="602.545" r="1.641"/>
        <circle class="cls-27" cx="543.169" cy="583.982" r="1.641"/>
        <circle class="cls-27" cx="587.574" cy="542.5" r="1.641"/>
        <circle class="cls-27" cx="580.472" cy="531.541" r="1.641"/>
        <circle class="cls-27" cx="549.675" cy="550.169" r="1.641"/>
        <circle class="cls-27" cx="545.345" cy="559.82" r="1.641"/>
        <circle class="cls-27" cx="553.958" cy="637.391" r="1.641"/>
        <circle class="cls-27" cx="576.839" cy="645.256" r="1.641"/>
        <circle class="cls-27" cx="537.955" cy="598.202" r="1.641"/>
        <circle class="cls-27" cx="664.441" cy="578.972" r="1.641"/>
        <ellipse class="cls-27" cx="601.819" cy="588.013" rx="8.038" ry="7.95"/>
        <line class="cls-11" x1="673.084" y1="562.394" x2="752.084" y2="487.017"/>
        <line class="cls-7" x1="673.084" y1="562.394" x2="645.974" y2="589.868"/>
        <g>
          <line class="cls-10" x1="677.577" y1="576.138" x2="777.104" y2="577.108"/>
          <path class="cls-22" d="M776.966,579.426c1.281.012,2.329-1.016,2.342-2.297.012-1.281-1.016-2.329-2.297-2.342-1.281-.012-2.329,1.016-2.342,2.297-.012,1.281,1.016,2.329,2.297,2.342Z"/>
        </g>
        <g>
          <line class="cls-15" x1="674.141" y1="616.096" x2="729.96" y2="615.997"/>
          <path class="cls-22" d="M729.848,618.316c1.281-.002,2.318-1.043,2.315-2.323-.002-1.281-1.043-2.317-2.323-2.315-1.281.002-2.317,1.043-2.315,2.323.002,1.281,1.043,2.317,2.323,2.315Z"/>
        </g>
        <line class="cls-11" x1="662.303" y1="637.627" x2="750.306" y2="699.594"/>
        <g>
          <line class="cls-17" x1="654.563" y1="645.127" x2="695.468" y2="675.436"/>
          <path class="cls-22" d="M693.994,677.231c1.029.762,2.482.546,3.244-.483.762-1.029.546-2.482-.483-3.244-1.029-.763-2.482-.546-3.244.483-.763,1.029-.546,2.482.483,3.244Z"/>
        </g>
        <g>
          <line class="cls-17" x1="601.819" y1="666.538" x2="600.845" y2="757.443"/>
          <path class="cls-22" d="M598.528,757.302c-.014,1.281,1.014,2.33,2.294,2.344,1.281.014,2.33-1.014,2.344-2.294.014-1.281-1.014-2.33-2.294-2.344-1.281-.014-2.33,1.014-2.344,2.294Z"/>
        </g>
        <line class="cls-11" x1="583.782" y1="664.699" x2="550.019" y2="770.164"/>
        <line class="cls-11" x1="637.881" y1="655.905" x2="684.66" y2="756.905"/>
        <g>
          <line class="cls-15" x1="535.379" y1="628.477" x2="480.479" y2="680.348"/>
          <path class="cls-22" d="M478.971,678.583c-.931.88-.973,2.348-.093,3.279.88.931,2.348.973,3.279.093.931-.88.973-2.348.093-3.279-.88-.931-2.348-.973-3.279-.093Z"/>
        </g>
        <line class="cls-11" x1="545.285" y1="639.349" x2="468.586" y2="723.112"/>
        <g>
          <line class="cls-15" x1="538.899" y1="555.794" x2="462.774" y2="495.242"/>
          <path class="cls-22" d="M464.309,493.499c-1.002-.797-2.462-.631-3.259.371s-.631,2.462.371,3.259c1.002.797,2.462.631,3.259-.371.797-1.002.631-2.462-.371-3.259Z"/>
        </g>
        <g>
          <line class="cls-15" x1="570.589" y1="520.929" x2="541.599" y2="464.365"/>
          <path class="cls-22" d="M543.716,463.41c-.584-1.14-1.982-1.59-3.122-1.006-1.14.584-1.59,1.982-1.006,3.122.584,1.14,1.982,1.59,3.122,1.006,1.14-.584,1.59-1.982,1.006-3.122Z"/>
        </g>
        <line class="cls-11" x1="478.505" y1="459.183" x2="552.505" y2="532.091"/>
        <g>
          <line class="cls-10" x1="525.102" y1="591.308" x2="425.307" y2="590.369"/>
          <path class="cls-22" d="M425.445,588.051c-1.281-.012-2.329,1.017-2.341,2.297-.012,1.281,1.017,2.329,2.297,2.341,1.281.012,2.329-1.017,2.341-2.297.012-1.281-1.017-2.329-2.297-2.341Z"/>
        </g>
        <line class="cls-11" x1="425.228" y1="544.84" x2="525.228" y2="578.025"/>
      </g>
      <path class="cls-22" d="M406.693,631.291l-54.015,11.468c6.785,31.956,19.651,62.312,37.896,89.411,18.245,27.099,41.532,50.438,68.589,68.745l30.937-45.723c-42.916-29.037-72.719-73.753-83.406-123.901Z"/>
    </g>
  </g>
</svg>